PathFileType	4	(X/Y/Z)	regression/subject04/trials/walk2/markers.trc
DataRate	CameraRate	NumFrames	NumMarkers	Units	OrigDataRate	OrigDataStartFrame	OrigNumFrames
199.9999999999954	199.9999999999954	4	64	m	199.9999999999954	83	223
Frame#	Time	CLAV			C7			RACR			RASH			RPSH			RLEL			RMEL			RUA1			RUA2			RUA3			RFAsuperior			RFAradius			RFAulna			RASI			RPSI			RCAL			RTOE			RMT5			RTH1			RTH2			RTH3			RTB1			RTB2			RTB3			RLFC			RMFC			RLMAL			RMMAL			RHJC			RKJC			REJC			RAJC			RSJC			LACR			LASH			LPSH			LLEL			LMEL			LUA1			LUA2			LUA3			LFAsuperior			LFAradius			LFAulna			LASI			LPSI			LCAL			LTOE			LMT5			LTH1			LTH2			LTH3			LTB1			LTB2			LTB3			LLFC			LMFC			LLMAL			LMMAL			LHJC			LKJC			LEJC			LAJC			LSJC			
		X1	Y1	Z1	X2	Y2	Z2	X3	Y3	Z3	X4	Y4	Z4	X5	Y5	Z5	X6	Y6	Z6	X7	Y7	Z7	X8	Y8	Z8	X9	Y9	Z9	X10	Y10	Z10	X11	Y11	Z11	X12	Y12	Z12	X13	Y13	Z13	X14	Y14	Z14	X15	Y15	Z15	X16	Y16	Z16	X17	Y17	Z17	X18	Y18	Z18	X19	Y19	Z19	X20	Y20	Z20	X21	Y21	Z21	X22	Y22	Z22	X23	Y23	Z23	X24	Y24	Z24	X25	Y25	Z25	X26	Y26	Z26	X27	Y27	Z27	X28	Y28	Z28	X29	Y29	Z29	X30	Y30	Z30	X31	Y31	Z31	X32	Y32	Z32	X33	Y33	Z33	X34	Y34	Z34	X35	Y35	Z35	X36	Y36	Z36	X37	Y37	Z37	X38	Y38	Z38	X39	Y39	Z39	X40	Y40	Z40	X41	Y41	Z41	X42	Y42	Z42	X43	Y43	Z43	X44	Y44	Z44	X45	Y45	Z45	X46	Y46	Z46	X47	Y47	Z47	X48	Y48	Z48	X49	Y49	Z49	X50	Y50	Z50	X51	Y51	Z51	X52	Y52	Z52	X53	Y53	Z53	X54	Y54	Z54	X55	Y55	Z55	X56	Y56	Z56	X57	Y57	Z57	X58	Y58	Z58	X59	Y59	Z59	X60	Y60	Z60	X61	Y61	Z61	X62	Y62	Z62	X63	Y63	Z63	X64	Y64	Z64	

84	1.825	1.758640726573165	1.454974055724013	-0.4517108610908192	1.651267327637303	1.543102985633197	-0.4403793396522138	1.741256749756413	1.507201965642875	-0.29872389150511	1.782394926352549	1.438636908018028	-0.2578010939423534	1.684513656103406	1.465444336442422	-0.2489042003442959	1.687687565340851	1.174971807116356	-0.1364861385405391	1.648249978182228	1.155412697339798	-0.2183985926409425	1.727871788184828	1.405752706274954	-0.2191753353741818	1.686357907046466	1.256355007394623	-0.1761592283804718	1.742337234860839	1.313950895711339	-0.2030096922861448	1.740223015270478	1.105920250871797	-0.2053490867663041	1.876141778532825	0.9968284046986485	-0.2430608448751087	1.839519295023829	0.9498276594200392	-0.220593398538496	1.719601649803943	0.9972376482606873	-0.3245031650845402	1.553037368677784	1.049145163499045	-0.4050835316470925	1.411884402829327	0.05318481224874202	-0.3729561832953259	1.673059215211718	0.05161275111909464	-0.4026045977150313	1.605149994411952	0.01587796234193281	-0.30682165393761	1.640132969371972	0.757037621856898	-0.3052559060117389	1.702193044452062	0.6633623388026828	-0.3767651249316121	1.612423730203954	0.5988817519847393	-0.3084563346884943	1.551527982576502	0.3179105720003252	-0.3248184111616473	1.575643949317326	0.2283692949262358	-0.3850597268455838	1.534651040195761	0.163263454919055	-0.3177071395700168	1.587726901373156	0.4897806051284357	-0.3191376522948261	1.584824000697604	0.4891200512689097	-0.437973566540085	1.494175259211002	0.06510219122122118	-0.3185889900537048	1.50169308722661	0.06275647185258315	-0.4195395296591299	1.635069289668342	0.9182550484795827	-0.3821310628718552	1.586905206896833	0.4885118607885231	-0.3804657778709347	1.670873132033684	1.158669509960641	-0.1841588291724333	1.482941480160689	0.05427415255525264	-0.3766303231373427	1.736542445304338	1.451194847863435	-0.2536333441363434	1.716356574590218	1.515178134142533	-0.5967022040059622	1.749833158827526	1.449067282209888	-0.6474650410588524	1.644121386958451	1.478019304908234	-0.6378563959729503	1.563082041415679	1.207216791452896	-0.7318035623527298	1.553148023008241	1.190022277980026	-0.6409564710068539	1.674699797852939	1.420864606960558	-0.6717353858219364	1.592148379587756	1.284733892937798	-0.6951266718246945	1.664122025592843	1.329200872310528	-0.69133181587352	1.583656699760794	1.105195067075824	-0.6914735828684375	1.625672420914785	0.9339107356557704	-0.7178074924487577	1.563763344952891	0.9245859914064838	-0.7294426958517892	1.716342812660185	1.016268854694692	-0.5889617952219751	1.551895821851676	1.055811655975771	-0.4977214563278168	1.689998118288925	0.1018518736988654	-0.5774358439190534	1.951243636627731	0.09303944098037362	-0.5497428366023145	1.881258178499822	0.05430431551357662	-0.6428268600593315	1.713253133641117	0.7987780742256311	-0.6326281077915036	1.825708250962298	0.7533844217867839	-0.5775523157290685	1.776227665486034	0.6512726463968436	-0.6408549512909523	1.805199051115302	0.3686433466959019	-0.6298481912533338	1.839766659273664	0.2816958171798526	-0.5709122612572716	1.800448602969783	0.2131000965817894	-0.6357526620743525	1.816275846477591	0.5463342823621764	-0.6375132304077897	1.831508958350174	0.5424341352706468	-0.5196846310204517	1.768114350518772	0.1120147954506294	-0.632442343205372	1.78142098907837	0.1108970655706576	-0.5320694602428168	1.633109380606451	0.9297006753407359	-0.5411800864459165	1.82978707589263	0.5418702121950503	-0.5765484795714448	1.561933958223162	1.19125578208732	-0.6811567107517295	1.761046291992759	0.100675302950006	-0.5738445700588614	1.703980677779314	1.461625222055296	-0.6432972912528423	
85	1.83	1.765056702147668	1.45404524607891	-0.4522879946286911	1.657812073711479	1.542317850100034	-0.4408557807133999	1.74795630804308	1.506384308479167	-0.2993070508611529	1.789064886641871	1.437790570243878	-0.2584025779808973	1.691230630942215	1.464728190755624	-0.2493826548731586	1.695253863392821	1.174280885266903	-0.1364474642661325	1.65529015329388	1.154627384781679	-0.2180818564467647	1.734806742279638	1.404997318294556	-0.2196195494737272	1.693633275059932	1.255625196429049	-0.1761894329034676	1.74941349787558	1.313216773610962	-0.2034602210443888	1.74766003429196	1.105751665386973	-0.2059589491764315	1.884152793076411	0.9979058123906779	-0.2451522725721352	1.848206983937568	0.9505726216891872	-0.2222933495141659	1.725251367019788	0.9963529892507051	-0.3245168603862133	1.558872679298446	1.048479502105148	-0.4053389136291832	1.411947640178175	0.05347444041536899	-0.372863874856331	1.673116179763058	0.05136744831166901	-0.4025343482625515	1.605141003069739	0.01575359782104545	-0.3067531459105661	1.644472660732921	0.7562330899062051	-0.3053899398396731	1.705676839209486	0.6620327095633378	-0.3769470278535953	1.615427028731364	0.5983164583605605	-0.308554208619644	1.552745044755357	0.3177654909515769	-0.3248214482732717	1.576474243194606	0.2280987971719524	-0.3850297984856543	1.535186925370416	0.163196520696801	-0.3176605777002711	1.589801023228373	0.4894268866533784	-0.3192056479990373	1.586787615960167	0.4887829593493572	-0.4380389026565745	1.494279727701163	0.06521401256932036	-0.3185146721062222	1.501799653708205	0.06280142493615026	-0.4194634795177813	1.64070161018583	0.9174823995569388	-0.3822725032476545	1.588879472696226	0.4881908188693674	-0.3805214292425935	1.678135032041648	1.157926030995276	-0.1839936507273267	1.48300559555242	0.05441606810814636	-0.376553787355637	1.743234429559367	1.450409498572605	-0.254177195001077	1.722643949204265	1.514218938306567	-0.5972543881098357	1.755964109698805	1.448035855402785	-0.6480260189984055	1.650303113543176	1.47712848555547	-0.6382845020420477	1.568114101454255	1.206801502650567	-0.7321091525211542	1.558388719337338	1.189562387334381	-0.6412479404057022	1.680631374323837	1.420018127144039	-0.6721872633601822	1.59755063377382	1.284188041816686	-0.6954518005020911	1.669685434196301	1.328407683943098	-0.6918306510007024	1.588373189718943	1.104655703319003	-0.6919268281771708	1.629578855600171	0.9332182949402894	-0.7185430998087108	1.567601114194676	0.9241746110920517	-0.7300336982581681	1.72240501454803	1.015400710166779	-0.5889790627848579	1.557875622837265	1.055151779484206	-0.4979780896468925	1.710462821993566	0.09631872602338246	-0.5775431181150833	1.972026405218241	0.09626340717186238	-0.5514994749892083	1.902809166174901	0.05556278458494409	-0.6443188849070844	1.718736018872002	0.7975909726079273	-0.6325102704230825	1.831216322669918	0.7521763200805399	-0.5775032657954038	1.78144116033089	0.6499519934265356	-0.6403919526611592	1.815890105760815	0.367094475213238	-0.6296590112697142	1.85384630143473	0.2812103438117457	-0.5712511397915502	1.816583731090549	0.2115023214768672	-0.6361191017412482	1.821315006846673	0.5449556680346469	-0.6367958208918467	1.836763061943606	0.5413989265785717	-0.5189843407119562	1.787848540393865	0.1093296131654059	-0.6330003376777793	1.801781352622634	0.1083256647957397	-0.532711253450611	1.638989775026034	0.9289379584526282	-0.5413236752282817	1.834679938407279	0.5408900364119122	-0.5758536002477848	1.567060677659365	1.190800796584292	-0.6814727703857	1.781531746921533	0.09754059508874147	-0.5744054767064898	1.710133652616301	1.460654783731512	-0.6438006360185853	
86	1.835	1.771493392415556	1.453070814985291	-0.4528833536106132	1.664374038001171	1.541483632491018	-0.441360503501561	1.754660171720562	1.505518985675945	-0.2999101462842499	1.795737188569024	1.436897535320228	-0.2590204495499264	1.697948569891869	1.46396230747016	-0.2498869854920734	1.702839562566782	1.173538737793649	-0.1364392219238465	1.662346057825224	1.153792252862399	-0.2177896036039682	1.74174742705001	1.404192934703868	-0.2200868039813976	1.700923143796157	1.254844984060785	-0.1762458670123622	1.756498393023481	1.312433568343843	-0.2039382042030834	1.755088478409108	1.105517141547164	-0.2065968055794576	1.892105137827923	0.9988922006337303	-0.2472745000176165	1.856835857478906	0.9512420223536707	-0.2240236747948212	1.73092212735439	0.9954382642574245	-0.3245428212303936	1.564737151327318	1.047765816518884	-0.4056330572508639	1.412014548348241	0.05378271040746774	-0.3727657607015543	1.67317497698299	0.05111369398804928	-0.4024623824528841	1.605131620898678	0.01562360741216262	-0.3066836522208126	1.648852246297115	0.7554018178269486	-0.3055315421842806	1.7092113444249	0.6606862047699503	-0.377126317700386	1.618486550067342	0.5977328940803492	-0.3086554549671217	1.554008483839149	0.3176149263943354	-0.324823841691664	1.577336665839969	0.2278191336626597	-0.3849964916205281	1.535742222988291	0.1631304705349184	-0.3176107423807478	1.591943835659222	0.4890599860976117	-0.3192746605819622	1.588831560668439	0.4884288526395145	-0.4381054356075414	1.494387290305906	0.0653358494178175	-0.3184364667629736	1.501911999282189	0.0628528729326176	-0.419383210973232	1.646367194331118	0.9166689770076093	-0.3824289877060594	1.590931051195338	0.4878532679329162	-0.38057873608224	1.685414054823667	1.157132232347388	-0.1838560306631021	1.48307301410823	0.05456889763683964	-0.3764735278765203	1.749928110149711	1.449576027833864	-0.2547418783120252	1.728964359300656	1.513214106682633	-0.5978282945143822	1.762134972327609	1.446960385867435	-0.6486057203124072	1.656523264156281	1.476190339789362	-0.6387415791299258	1.573243362190992	1.206313359360333	-0.7324350706534172	1.563706615229408	1.189039859050289	-0.6415603950516657	1.686615141527765	1.419119096643119	-0.6726633692842739	1.603030284343269	1.283577014339046	-0.6958015583431801	1.675318154359672	1.327559072521055	-0.6923430453597326	1.593173852896432	1.104049522756162	-0.6923804272972403	1.633570355375509	0.9324584100528137	-0.7192454684580858	1.571529004151149	0.923697187543884	-0.7306109520995649	1.728521238940527	1.014474560924073	-0.5890102654197972	1.563896137668831	1.054434092066891	-0.4982740694295533	1.730858110725541	0.09119209680759274	-0.5776478633642264	1.992437302601214	0.09987390422804462	-0.5532606725797449	1.924035417023094	0.05723701683920276	-0.6458149139757895	1.724240070523016	0.7963040736911	-0.6323706658801053	1.836700231204154	0.7508121286265037	-0.5773863484925382	1.786603259675317	0.6485007732337181	-0.639876721213224	1.826412961948575	0.3655897936418775	-0.6294215630039852	1.867711277768544	0.2808865601348707	-0.5715592470191694	1.832523306710846	0.2101413599485901	-0.636462893738349	1.826247616166006	0.5434273191777903	-0.6360065278509004	1.841862807418334	0.5402093424171464	-0.5182073423445432	1.807408263648976	0.1070129694165278	-0.6335525886642596	1.821975900897607	0.106147582294945	-0.5333524557592715	1.644923267325459	0.9281176652040323	-0.5414833121710715	1.839422609687285	0.5397482998779715	-0.5750842744278135	1.572274209952037	1.190279319230793	-0.6818075505369754	1.801864382251773	0.0948045732589563	-0.574965380149582	1.716325893908295	1.459638878381071	-0.6443271490745058	
87	1.84	1.777950309208775	1.452051434755802	-0.4534969047136589	1.670952457717946	1.540600801405463	-0.4418939780836387	1.761367331359871	1.504607121080329	-0.3005332660013899	1.802410884274589	1.435959144212196	-0.2596544928157252	1.704666393444743	1.463147830314829	-0.2504172929999418	1.710443785910974	1.172745229384706	-0.1364647578891344	1.669419450441561	1.152907163742183	-0.217526384098779	1.748692418786581	1.403340473151036	-0.2205776230793784	1.708226759910342	1.254014470067591	-0.1763313184468192	1.76359116712188	1.311602280172684	-0.2044444016449537	1.762510765792297	1.105216369334308	-0.2072631176402175	1.900002716257436	0.9997852395826268	-0.2494218444291638	1.865407312669919	0.9518332607084342	-0.2257822955192171	1.736614707978271	0.9944948432374712	-0.3245801924585561	1.570631343515445	1.047003218576374	-0.4059659320049855	1.412085903512968	0.05411147799059451	-0.3726612498348884	1.673236142251078	0.05085029400567664	-0.4023883412301028	1.605122019017582	0.0154868517061072	-0.3066130684186638	1.653273958928504	0.7545440976976698	-0.3056803376999108	1.712800316464401	0.659322860782054	-0.3773016247836602	1.62160528853732	0.5971308319513482	-0.3087597754305851	1.555320850589528	0.3174587229903721	-0.3248253492424463	1.578233370576222	0.2275299489902174	-0.3849591026753023	1.536318044353153	0.1630657238327822	-0.3175571062919048	1.59415894964225	0.4886792493752135	-0.3193445221660828	1.5909609256506	0.4880564858358413	-0.438173064555371	1.49449826439768	0.06546873983807322	-0.3183539230649096	1.502031220080193	0.06291144198036608	-0.419298196752957	1.652068413317936	0.9158150492178543	-0.3826005307366181	1.593064426427281	0.487498099852855	-0.3806376234989336	1.692710913271816	1.156288056969424	-0.1837498738997332	1.483144453308336	0.05473360905855595	-0.3763891580530002	1.756622477545348	1.448695684216974	-0.2553273265620215	1.735317544656431	1.512163760514508	-0.59842421672206	1.768345778585474	1.445840903472276	-0.6492041976042938	1.662781728489241	1.47520468446312	-0.6392280218032477	1.578468526628421	1.205751922439007	-0.7327809328992153	1.569101099346796	1.188454513014957	-0.6418931947018424	1.692650731321494	1.418167364460955	-0.6731637996482136	1.608586453331862	1.282900542750665	-0.6961756298509745	1.681019588585472	1.326654705641801	-0.692869113176483	1.598058790764697	1.103376409962618	-0.6928339852948528	1.637648768618691	0.9316312273118018	-0.7199143046734554	1.575548732463262	0.9231531821338119	-0.7311735568446414	1.734693637645031	1.013492849690458	-0.5890543105336881	1.569958406622652	1.053658081342475	-0.4986092819970528	1.751134726417748	0.0864919838933364	-0.5777417263991662	2.012430705066483	0.1038586796610977	-0.5550130683462889	1.944887741548228	0.05931796229353704	-0.6473011081607909	1.729776558175368	0.7949260263914768	-0.632211957829908	1.842172938614791	0.7493055869282348	-0.5772036936138697	1.791733270243975	0.6469320001621409	-0.6393153291480221	1.836766433030716	0.3641383617816205	-0.6291372018279392	1.881345142334073	0.2807283043148984	-0.5718332991905105	1.848240870568037	0.2090220168864331	-0.6367784725913811	1.831098599109249	0.5417648113765661	-0.6351539073076027	1.846831955814999	0.5388784303237499	-0.5173618533759916	1.826749587827544	0.1050720507167597	-0.6340897002229379	1.841957412714857	0.1043730144594944	-0.5339834317151015	1.650913055443776	0.9272407091580536	-0.5416588689674431	1.844040961971001	0.5384580785006881	-0.5742491817309815	1.577573651749939	1.189691036244937	-0.6821605553256364	1.821996197380008	0.09247827904709505	-0.57551459669239	1.722557371856233	1.458577443477054	-0.64487703135059	
